<?xml version="1.0" encoding="utf-8"?>
<svg width="385.40118px" height="610.505px" viewBox="0 0 385.40118 610.505" version="1.1" xmlns:xlink="http://www.w3.org/1999/xlink" xmlns="http://www.w3.org/2000/svg">
  <path d="M135.219 0.835663C111.887 2.42647 84.3129 8.04732 68.4048 14.3045C31.7101 28.8339 10.9236 50.9992 2.5453 84.6183C0.106064 94.2691 0 96.1781 0 134.464C0 184.627 1.27264 268.304 2.65135 309.24C6.36324 416.673 13.4688 516.152 18.9837 535.878C25.559 559.422 39.1339 578.936 57.5873 591.768C65.1171 596.965 78.9041 602.904 89.9337 605.767C107.857 610.434 117.402 610.858 199.912 610.328C266.407 610.009 278.073 609.691 285.815 608.1C315.298 602.267 338.63 587.632 352.205 566.421C362.492 550.301 367.371 535.772 369.598 515.091C378.719 426.536 383.067 326.421 385.082 162.038C385.824 103.496 385.506 95.1176 381.582 79.3156C369.704 31.5913 327.176 5.39597 253.999 0.835663C236.182 -0.330969 151.657 -0.224876 135.219 0.835663L135.219 0.835663ZM258.772 33.7124C307.238 38.2727 333.221 50.4689 345.099 74.331C351.675 87.3756 352.841 94.7994 352.735 121.737C352.629 165.643 347.751 199.793 338.1 223.867C328.449 247.835 312.435 262.895 289.951 269.152C285.497 270.319 276.058 271.803 268.741 272.334C251.666 273.606 133.31 273.606 116.235 272.334C89.5095 270.213 73.6014 263.001 60.4507 247.199C41.7853 224.822 32.4525 183.248 32.2404 122.586C32.2404 97.1326 33.301 89.921 39.0279 78.3611C40.8308 74.5431 44.9669 68.7102 48.1485 65.2104C67.1321 44.742 96.8273 35.6213 154.839 32.2276C167.565 31.4852 247.424 32.6518 258.772 33.7124L258.772 33.7124Z" id="Shape" fill="#515A6E" fill-rule="evenodd" stroke="none" />
  <path d="M119.321 66.1624C106.171 74.1165 111.897 95.3272 127.275 95.3272C137.138 95.2211 143.395 89.1761 143.395 79.7373C143.395 73.5862 141.38 69.6622 136.608 66.3745C132.154 63.2989 124.094 63.1929 119.321 66.1624L119.321 66.1624Z" id="Shape-2" fill="#515A6E" stroke="none" />
  <path d="M246.623 67.924C243.865 70.5754 242.063 73.3327 241.426 75.9841C237.82 92.1043 257.971 102.392 268.894 89.9832C273.242 84.9987 274.091 79.9081 271.546 73.757C268.788 67.0755 264.016 64 256.592 64C251.501 64 250.441 64.4242 246.623 67.924L246.623 67.924Z" id="Shape-3" fill="#515A6E" stroke="none" />
</svg>